<?xml version="1.0" encoding="utf-8"?>
<!-- Generator: Adobe Illustrator 16.0.0, SVG Export Plug-In . SVG Version: 6.00 Build 0)  -->
<!DOCTYPE svg PUBLIC "-//W3C//DTD SVG 1.1//EN" "http://www.w3.org/Graphics/SVG/1.1/DTD/svg11.dtd">
<svg version="1.1" id="Capa_1" xmlns="http://www.w3.org/2000/svg" xmlns:xlink="http://www.w3.org/1999/xlink" x="0px"
     y="0px"
     width="612px" height="792px" viewBox="0 0 612 792" enable-background="new 0 0 612 792" xml:space="preserve">
<g>
	<path fill="#E9437A" d="M484.349,337.125V220.05L306,168.556L127.602,220.05v117.076c0,0-6.744,205.957,178.398,286.257
		c0.501-0.218,1.001-0.437,1.499-0.656c47.699-20.986,82.55-50.352,108.01-82.324c22.906-28.766,38.21-59.642,48.429-88.425
		C486.069,389.642,484.349,337.125,484.349,337.125z"/>
  <path opacity="0.37" d="M306.37,177l1.129,445.727c0,0,77.37-21.1,122.936-102.913s36.907-88.669,41.236-92.491
		S487.198,347,484.349,320.5s0.182,44.664,0-32.002s0-68.448,0-68.448L306,168.556L306.37,177z"/>
  <path fill="#DFE1E5" d="M493.137,507.092v102.645H339.666V507.092c0-6.084,4.932-11.016,11.016-11.016h131.439
		C488.205,496.076,493.137,501.008,493.137,507.092z"/>
  <path fill="#FFFFFF" d="M486.638,507.875v90.179c0,2.769-2.244,5.012-5.013,5.012H351.159c-2.769,0-5.012-2.243-5.012-5.012
		v-90.179c0-2.768,2.243-5.012,5.012-5.012h130.466C484.394,502.863,486.638,505.107,486.638,507.875z"/>
  <path fill="#BBBFC3" d="M335.982,610.551c0,6.084,4.933,11.016,11.017,11.016h147.174v-11.806l-158.19-0.036V610.551z"/>
  <path fill="#CDD0D5" d="M556.081,610.551c0,6.084-4.932,11.016-11.016,11.016h-131.96c-6.084,0-11.016-4.932-11.016-11.016v-0.796
		h153.991V610.551z"/>
  <path fill="#EFF0F2" d="M460.728,614.965c-2.907,0.002-5.29-2.308-5.379-5.214c0-0.089,0.07-0.162,0.159-0.166h33.898
		c0.084,0,0.153,0.069,0.153,0.153c0,2.887-2.341,5.227-5.227,5.227H460.728L460.728,614.965z"/>
  <path fill="#EFF0F2" d="M279.329,316.899h-0.734C278.839,316.922,279.085,316.922,279.329,316.899z"/>
  <path fill="#4285F4" d="M503.339,479.771h-0.043H503.339z"/>
  <circle fill="#3566B8" cx="304.751" cy="357.395" r="107.179"/>
  <g>
		<defs>
			<circle id="SVGID_1_" cx="304.751" cy="357.395" r="107.179"/>
		</defs>
    <clipPath id="SVGID_2_">
			<use xlink:href="#SVGID_1_" overflow="visible"/>
		</clipPath>
	</g>

  <linearGradient id="SVGID_3_" gradientUnits="userSpaceOnUse" x1="528.7776" y1="-21.563" x2="611.3565" y2="-21.563"
                  gradientTransform="matrix(0.612 0 0 -0.612 8.594 550.5496)">
		<stop offset="0" style="stop-color:#676C72;stop-opacity:0.7"/>
    <stop offset="0.27" style="stop-color:#70767C;stop-opacity:0.58"/>
    <stop offset="0.77" style="stop-color:#888F97;stop-opacity:0.26"/>
    <stop offset="1" style="stop-color:#959CA5;stop-opacity:0.1"/>
	</linearGradient>
  <path fill="url(#SVGID_3_)" d="M347.488,504.098l-2.497,0.44c-4.094,0.725-7.076,4.282-7.075,8.439v95.313
		c-0.001,4.157,2.981,7.716,7.075,8.439l37.754,6.665v-84.046L347.488,504.098z"/>
  <path fill="#BBBFC3" d="M285.189,481.275l51.155-0.304c6.084-0.035,11.046,4.867,11.082,10.951l0.713,120.219
		c0.036,6.084-4.866,11.045-10.95,11.081l-51.156,0.304c-6.084,0.036-11.045-4.866-11.081-10.95l-0.714-120.22
		C274.202,486.273,279.105,481.312,285.189,481.275z"/>
  <path fill="#DFE1E5" d="M280.281,481.269l51.155-0.304c6.084-0.036,11.046,4.866,11.082,10.95l0.713,120.274
		c0.036,6.084-4.866,11.045-10.95,11.081l-51.156,0.304c-6.083,0.036-11.045-4.867-11.081-10.95l-0.714-120.274
		C269.294,486.266,274.197,481.305,280.281,481.269z"/>
  <path fill="none" stroke="#BABFC5" stroke-width="5" stroke-linecap="round" stroke-linejoin="round"
        d="M295.253,488.632h24.492"
  />
  <path fill="#FFFFFF" d="M330.229,612.274h-47.521c-3.928,0-7.111-3.184-7.111-7.111c0-0.002,0-0.004,0-0.006L275.4,502.225
		c0-3.929,3.184-7.114,7.111-7.117h47.522c3.931,0,7.117,3.187,7.117,7.117l0,0l0.189,102.933c0.004,3.928-3.178,7.114-7.105,7.117
		C330.233,612.274,330.231,612.274,330.229,612.274z"/>
  <path fill="#34A853" d="M349.837,574.159c2.459-7.289-0.42-15.313-6.952-19.376l0.073,12.491L349.837,574.159z"/>
  <path fill="#4688F1" d="M275.4,507.231v-3.746l-6.01,0.086l0.062,10.013C270.879,511.007,272.923,508.825,275.4,507.231z
		 M267.218,522.225c-0.005,3.092,0.802,6.13,2.337,8.813l-0.104-17.454C267.983,516.227,267.214,519.201,267.218,522.225z"/>
  <path fill="#4688F1" d="M275.4,537.207v-29.988c-2.477,1.594-4.521,3.776-5.948,6.353l0.104,17.454
		C270.979,533.525,272.984,535.646,275.4,537.207z"/>

  <linearGradient id="SVGID_4_" gradientUnits="userSpaceOnUse" x1="426.137" y1="-21.1934" x2="501.928" y2="-21.1934"
                  gradientTransform="matrix(0.612 0 0 -0.612 8.594 550.5496)">
		<stop offset="0" style="stop-color:#676C72;stop-opacity:0.7"/>
    <stop offset="0.27" style="stop-color:#70767C;stop-opacity:0.58"/>
    <stop offset="0.77" style="stop-color:#888F97;stop-opacity:0.26"/>
    <stop offset="1" style="stop-color:#959CA5;stop-opacity:0.1"/>
	</linearGradient>
  <path fill="url(#SVGID_4_)" d="M279.115,503.437l-9.725,0.135l0.649,109.077c0.033,6.083,4.992,10.988,11.076,10.954
		c0,0,0,0,0.001,0l34.657-0.122v-74.432c0.004-5.737-2.272-11.241-6.328-15.3L279.115,503.437z"/>
  <path fill="#FABB05" d="M267.218,522.225c-0.005,3.092,0.802,6.13,2.337,8.813l-0.104-17.454
		C267.983,516.227,267.214,519.201,267.218,522.225z"/>
  <path fill="#FFFFFF"
        d="M315.975,518.908c0.846,0,1.53-0.686,1.53-1.53s-0.685-1.53-1.53-1.53h-24.418l3.06,3.061H315.975z"/>
  <path fill="#816BE8" d="M314.757,504.385h-29.712c-9.847,0.004-17.827,7.987-17.827,17.834c0,8.254,5.662,15.431,13.69,17.351V549
		l8.91-8.917h24.921c9.846,0,17.827-7.981,17.827-17.827c0-0.002,0-0.004,0-0.007c0.023-9.842-7.936-17.84-17.778-17.864
		C314.778,504.385,314.768,504.385,314.757,504.385L314.757,504.385z"/>
  <path fill="#816BE8" d="M280.908,539.569V549l8.91-8.917h23.966c-1.071-2.337-2.549-4.465-4.363-6.285l-28.795-28.862
		c-4.753,1.225-8.794,4.35-11.175,8.642l0.104,17.454C271.995,535.325,276.106,538.416,280.908,539.569z"/>
  <path fill="#E9437A" d="M333.906,552.201h-23.048c-9.24-0.034-16.759,7.43-16.793,16.67c0,0.007,0,0.013,0,0.019
		c0.034,9.241,7.552,16.705,16.793,16.672c0.013-0.001,0.024-0.001,0.037-0.001h17.748l8.531,8.488v-8.807
		c7.864-1.488,13.558-8.36,13.556-16.364c-0.033-9.244-7.555-16.711-16.799-16.678C333.923,552.2,333.915,552.201,333.906,552.201
		L333.906,552.201z"/>
  <path fill="#E9437A" d="M310.859,552.207c-9.21,0-16.677,7.467-16.677,16.677c0,9.211,7.467,16.677,16.677,16.677h4.896v-33.354
		H310.859z"/>
  <path fill="#FFFFFF" d="M334.451,570.622h-24.902c-0.845,0-1.529-0.686-1.529-1.53s0.685-1.53,1.529-1.53l0,0h24.902
		c0.846,0,1.53,0.686,1.53,1.53S335.297,570.622,334.451,570.622z M315.975,525.958h-29.191c-0.846,0-1.53,0.686-1.53,1.53
		s0.685,1.53,1.53,1.53l0,0h29.191c0.846,0,1.53-0.686,1.53-1.53S316.821,525.958,315.975,525.958z M286.783,518.914h29.191
		c0.846,0,1.53-0.685,1.53-1.53c0-0.845-0.685-1.529-1.53-1.529h-29.191c-0.846,0-1.53,0.685-1.53,1.529
		C285.253,518.229,285.938,518.914,286.783,518.914L286.783,518.914z"/>
  <path fill="#DFE1E5" d="M309.549,567.593c-0.845,0-1.529,0.685-1.529,1.529c0,0.846,0.685,1.53,1.529,1.53l0,0h6.242v-3.06H309.549
		z M285.266,527.488c0,0.838,0.679,1.518,1.518,1.518h17.9l-3.06-3.06h-14.841c-0.839,0-1.519,0.679-1.519,1.518
		C285.265,527.472,285.265,527.479,285.266,527.488z M285.266,517.396c0,0.838,0.679,1.518,1.518,1.518h7.809l-3.06-3.06h-4.773
		C285.92,515.867,285.252,516.558,285.266,517.396C285.266,517.396,285.266,517.396,285.266,517.396z"/>
  <path fill="#BBBFC3" d="M138.544,498.571h131.434c6.084,0,11.016,4.932,11.016,11.016v102.645H138.544
		c-6.084,0-11.016-4.932-11.016-11.016v-91.629C127.529,503.503,132.46,498.571,138.544,498.571z"/>
  <path fill="#DFE1E5" d="M134.866,498.571h131.439c6.084,0,11.016,4.932,11.016,11.016v102.645H123.851V509.587
		C123.851,503.503,128.782,498.571,134.866,498.571z"/>
  <path fill="#FFFFFF" d="M135.363,505.358h130.466c2.769,0,5.012,2.244,5.012,5.012v90.179c0,2.769-2.243,5.012-5.012,5.012H135.363
		c-2.769,0-5.013-2.243-5.013-5.012V510.37C130.35,507.603,132.594,505.358,135.363,505.358z"/>
  <path fill="#BBBFC3" d="M281.006,612.22l-158.19,0.036v11.806H269.99c6.084,0,11.017-4.932,11.017-11.016V612.22z"/>
  <path fill="#CDD0D5" d="M60.906,612.25h153.991v0.796c0,6.084-4.932,11.016-11.016,11.016H71.922
		c-6.084,0-11.016-4.932-11.016-11.016V612.25z"/>
  <path fill="#EFF0F2" d="M146.348,617.636h-23.605c-2.886,0-5.227-2.34-5.227-5.227c0-0.084,0.069-0.153,0.153-0.153h33.898
		c0.089,0.004,0.159,0.077,0.159,0.166C151.638,615.328,149.255,617.638,146.348,617.636L146.348,617.636z"/>
</g>
  <g>
	<path fill="#F4F4F4" d="M239.555,342.612v19.204c0.441-0.705,1.41-1.233,2.467-1.233h33.826v2.907c0,0.617-0.44,1.057-0.969,1.057
		h-35.324v18.058c0,5.109,4.141,9.249,9.25,9.249h28.453c0.617,0,1.057,0.44,1.057,1.058v2.73h-29.51
		c-7.664,0-13.83-6.166-13.83-13.83v-38.495c0-7.576,6.167-13.83,13.83-13.83h29.51v2.819c0,0.617-0.44,1.057-1.057,1.057h-28.453
		C243.696,333.363,239.555,337.503,239.555,342.612z"/>
    <path fill="#F4F4F4" d="M290.999,342.612v19.204c0.44-0.705,1.409-1.233,2.466-1.233h33.826v2.907c0,0.617-0.44,1.057-0.969,1.057
		h-35.323v18.058c0,5.109,4.14,9.249,9.249,9.249h28.453c0.616,0,1.057,0.44,1.057,1.058v2.73h-29.51
		c-7.664,0-13.83-6.166-13.83-13.83v-38.495c0-7.576,6.166-13.83,13.83-13.83h29.51v2.819c0,0.617-0.44,1.057-1.057,1.057h-28.453
		C295.139,333.363,290.999,337.503,290.999,342.612z"/>
    <path fill="#F4F4F4" d="M342.443,342.612v19.204c0.44-0.705,1.409-1.233,2.466-1.233h33.826v2.907c0,0.617-0.44,1.057-0.969,1.057
		h-35.323v18.058c0,5.109,4.14,9.249,9.249,9.249h28.453c0.616,0,1.057,0.44,1.057,1.058v2.73h-29.51
		c-7.664,0-13.83-6.166-13.83-13.83v-38.495c0-7.576,6.166-13.83,13.83-13.83h29.51v2.819c0,0.617-0.44,1.057-1.057,1.057h-28.453
		C346.582,333.363,342.443,337.503,342.443,342.612z"/>
</g>
  <path fill="#283592" d="M236.166,539.01l-14.677-12.317l-4.117,4.886l14.681,12.313L236.166,539.01z M191.116,531.578l-4.083-4.886
	l-14.677,12.284l4.113,4.881L191.116,531.578z M205.856,546.284h-4.785v19.143l15.155,9.094l2.393-3.925l-12.763-7.562V546.284z
	 M204.261,533.521c-15.857,0-28.715,12.858-28.715,28.715c0,15.857,12.829,28.715,28.715,28.715
	c15.857,0,28.714-12.857,28.714-28.715C232.975,546.38,220.118,533.521,204.261,533.521z M204.261,584.57
	c-12.347,0-22.333-9.987-22.333-22.334s9.987-22.333,22.333-22.333s22.333,9.986,22.333,22.333S216.608,584.57,204.261,584.57z"/>
  <path fill="#E9437A" d="M429.596,538.632h-2.523v-5.047h-5.047v5.047h-20.189v-5.047h-5.047v5.047h-2.524
	c-2.799,0-5.021,2.271-5.021,5.048l-0.026,35.331c0,2.776,2.248,5.047,5.047,5.047h35.331c2.776,0,5.048-2.271,5.048-5.047V543.68
	C434.644,540.903,432.372,538.632,429.596,538.632z M429.596,579.011h-35.331v-27.76h35.331V579.011z M399.313,556.298h12.618
	v12.618h-12.618V556.298z"/>
</svg>
